<?xml version="1.0" standalone="no"?><!DOCTYPE svg PUBLIC "-//W3C//DTD SVG 1.1//EN" "http://www.w3.org/Graphics/SVG/1.1/DTD/svg11.dtd"><svg t="1742366959418" class="icon" viewBox="0 0 1024 1024" version="1.1" xmlns="http://www.w3.org/2000/svg" p-id="2146" xmlns:xlink="http://www.w3.org/1999/xlink" width="64" height="64"><path d="M512.17 960c-2.87 0-5.75-0.74-8.31-2.22L173.4 766.98c-31.7-18.3-51.42-52.42-51.45-89.03l-0.28-357.07c0-20.42 5.88-40.06 17.02-56.78C222.07 138.8 361.6 64 511.92 64h0.47c127.98 0 249.99 54.99 334.79 150.92 6.09 6.87 5.44 17.38-1.44 23.46-6.88 6.1-17.39 5.45-23.46-1.44-78.48-88.79-191.43-139.69-309.9-139.69h-0.44c-139.18 0-268.37 69.26-345.57 185.27-7.49 11.26-11.45 24.52-11.45 38.35l0.28 357.05c0.02 24.79 13.37 47.88 34.83 60.27l322.14 186 322.1-185.98c21.49-12.4 34.84-35.53 34.82-60.35l-0.18-307c-0.02-9.42-5.08-18.21-13.25-22.92-8.17-4.72-18.31-4.72-26.51-0.01l-20.28 11.69c-0.41 0.29-0.83 0.56-1.27 0.82L520.12 526.43a16.615 16.615 0 0 1-16.62-0.01l-172.93-99.9c-7.95-4.59-10.68-14.76-6.09-22.7 4.59-7.96 14.77-10.69 22.71-6.08l164.62 95.09 277.9-160.46c0.42-0.29 0.84-0.57 1.28-0.82l21.56-12.43c18.44-10.62 41.3-10.62 59.74 0.02 18.41 10.62 29.85 30.44 29.87 51.69l0.18 307.01c0.02 36.67-19.69 70.83-51.44 89.16L520.48 957.78a16.643 16.643 0 0 1-8.31 2.22z" fill="#909090" p-id="2147"></path></svg>