<?xml version="1.0" standalone="no"?><!DOCTYPE svg PUBLIC "-//W3C//DTD SVG 1.1//EN" "http://www.w3.org/Graphics/SVG/1.1/DTD/svg11.dtd"><svg t="1742393008412" class="icon" viewBox="0 0 1024 1024" version="1.1" xmlns="http://www.w3.org/2000/svg" p-id="1088" xmlns:xlink="http://www.w3.org/1999/xlink" width="128" height="128"><path d="M76.385203 962.505437 76.385203 245.087974l95.934956 0 0 717.417463L76.385203 962.505437zM230.136959 226.316445c-25.726941-59.07956-52.492538-111.907743-80.297814-158.484547l94.895277 0c36.134988 59.095933 65.331961 111.924115 87.588871 158.484547L230.136959 226.316445zM394.761344 753.447051c-71.679529-2.078335-108.566648-36.151361-110.644983-102.202707L284.116361 432.273191c3.470031-66.034972 37.57478-100.779288 102.298897-104.265692l244.266259 0c69.584821 3.485381 105.784278 40.324404 108.566648 110.517069l0 209.601762c-1.407046 68.817342-40.020482 103.929024-115.873054 105.320721L394.761344 753.447051zM578.540997 678.361959c41.076534-1.375324 62.310138-20.146852 63.717184-56.313563L642.258181 464.603527c0-41.699728-21.249977-62.565964-63.717184-62.565964L443.768501 402.037563c-41.795918 0.704035-63.029522 20.162202-63.717184 58.391898l0 161.618934c0.687662 36.855396 21.921265 55.625902 63.717184 56.313563L578.540997 678.361959zM668.543847 963.257567l-25.022906-79.242785 131.383306 0c50.045813 0 75.085092-26.39823 75.085092-79.19469L849.989339 240.067634c-1.390673-46.52871-23.296589-70.847581-65.699328-72.942289L382.833687 167.125345 382.833687 88.905866l431.707302 0c83.415828 4.860704 127.561257 45.856397 132.438335 122.972752l0 616.942097c-4.173043 85.446068-48.670489 130.263809-133.493363 134.436852L668.543847 963.257567z" p-id="1089"></path></svg>