<?xml version="1.0" standalone="no"?><!DOCTYPE svg PUBLIC "-//W3C//DTD SVG 1.1//EN" "http://www.w3.org/Graphics/SVG/1.1/DTD/svg11.dtd"><svg t="1742352088761" class="icon" viewBox="0 0 1024 1024" version="1.1" xmlns="http://www.w3.org/2000/svg" p-id="1016" xmlns:xlink="http://www.w3.org/1999/xlink" width="200" height="200"><path d="M942.08 512c0-237.568-192.512-430.08-430.08-430.08S81.92 274.432 81.92 512s192.512 430.08 430.08 430.08c98.304 0 192.512-32.768 268.288-94.208 8.192-8.192 10.24-20.48 4.096-28.672-8.192-8.192-20.48-10.24-28.672-4.096C686.08 870.4 600.064 901.12 512 901.12 296.96 901.12 122.88 727.04 122.88 512S296.96 122.88 512 122.88s389.12 174.08 389.12 389.12c0 73.728-20.48 143.36-59.392 204.8-6.144 10.24-4.096 22.528 6.144 28.672 10.24 6.144 22.528 4.096 28.672-6.144C919.552 671.744 942.08 593.92 942.08 512z" p-id="1017"></path><path d="M378.88 727.04c36.864 28.672 83.968 47.104 143.36 47.104s108.544-16.384 143.36-47.104c22.528-18.432 36.864-36.864 43.008-49.152 6.144-10.24 0-22.528-10.24-28.672s-22.528 0-28.672 10.24c0 2.048-2.048 4.096-6.144 10.24-6.144 8.192-14.336 16.384-24.576 24.576-28.672 22.528-67.584 36.864-118.784 36.864s-88.064-14.336-118.784-36.864c-10.24-8.192-18.432-16.384-24.576-24.576-4.096-4.096-6.144-8.192-6.144-10.24-6.144-10.24-18.432-14.336-28.672-10.24-10.24 6.144-14.336 18.432-10.24 28.672 10.24 14.336 24.576 32.768 47.104 49.152z" p-id="1018"></path></svg>