<?xml version="1.0" standalone="no"?><!DOCTYPE svg PUBLIC "-//W3C//DTD SVG 1.1//EN" "http://www.w3.org/Graphics/SVG/1.1/DTD/svg11.dtd"><svg t="1742352084714" class="icon" viewBox="0 0 1024 1024" version="1.1" xmlns="http://www.w3.org/2000/svg" p-id="873" xmlns:xlink="http://www.w3.org/1999/xlink" width="200" height="200"><path d="M512.05 751.51c-95.88 0-176.28-71.75-187.01-166.91l51.67-5.83c7.77 68.83 65.95 120.74 135.34 120.74 69.04 0 127.19-51.61 135.26-120.04l51.64 6.09c-11.16 94.61-91.51 165.95-186.9 165.95z" fill="#0081FF" p-id="874"></path><path d="M512 964.39c-61.07 0-120.34-11.99-176.15-35.63-53.86-22.82-102.24-55.47-143.78-97.04-41.52-41.56-74.13-89.94-96.91-143.8C71.57 632.15 59.61 572.96 59.61 512c0-61.08 11.96-120.34 35.55-176.13 22.78-53.88 55.39-102.26 96.92-143.79 41.53-41.53 89.91-74.14 143.79-96.92C391.66 71.57 450.92 59.61 512 59.61s120.34 11.96 176.13 35.55c53.88 22.78 102.26 55.39 143.79 96.92 41.53 41.53 74.14 89.91 96.92 143.79 23.59 55.79 35.55 115.05 35.55 176.13 0 60.96-11.96 120.15-35.55 175.92-22.78 53.86-55.39 102.24-96.91 143.8-41.54 41.58-89.92 74.23-143.78 97.04-55.81 23.64-115.08 35.63-176.15 35.63z m0-848.78c-218.57 0-396.39 177.82-396.39 396.39S293.43 908.39 512 908.39 908.39 730.57 908.39 512 730.57 115.61 512 115.61z" fill="#0081FF" p-id="875"></path></svg>