<?xml version="1.0" standalone="no"?><!DOCTYPE svg PUBLIC "-//W3C//DTD SVG 1.1//EN" "http://www.w3.org/Graphics/SVG/1.1/DTD/svg11.dtd"><svg t="1742352461831" class="icon" viewBox="0 0 1024 1024" version="1.1" xmlns="http://www.w3.org/2000/svg" p-id="1346" xmlns:xlink="http://www.w3.org/1999/xlink" width="128" height="128"><path d="M802.304 329.984V719.36c0 14.848-10.24 28.672-25.088 31.232-18.688 3.072-35.072-11.264-35.072-29.696v-481.28c0-33.024-26.88-60.416-60.416-60.416H260.352c-33.024 0-60.416 26.88-60.416 60.416v511.488c0 49.664 40.704 90.368 90.368 90.368h481.792c49.92 0 90.368-40.448 90.368-90.368v-360.96c0-33.28-27.136-60.16-60.16-60.16z m-180.48 346.112H320.768c-16.64 0-30.208-13.568-30.208-30.208 0-16.64 13.568-30.208 30.208-30.208h300.8c16.64 0 30.208 13.568 30.208 30.208 0 16.896-13.568 30.208-29.952 30.208z m0-150.784H320.768c-16.64 0-30.208-13.568-30.208-30.208 0-16.64 13.568-30.208 30.208-30.208h300.8c16.64 0 30.208 13.568 30.208 30.208 0 16.896-13.568 30.208-29.952 30.208z m0-150.272H320.768c-16.64 0-30.208-13.568-30.208-30.208 0-16.64 13.568-30.208 30.208-30.208h300.8c16.64 0 30.208 13.568 30.208 30.208 0 16.64-13.568 30.208-29.952 30.208z m0 0" p-id="1347"></path></svg>