<?xml version="1.0" standalone="no"?><!DOCTYPE svg PUBLIC "-//W3C//DTD SVG 1.1//EN" "http://www.w3.org/Graphics/SVG/1.1/DTD/svg11.dtd"><svg t="1742352454954" class="icon" viewBox="0 0 1024 1024" version="1.1" xmlns="http://www.w3.org/2000/svg" p-id="1141" width="128" height="128" xmlns:xlink="http://www.w3.org/1999/xlink"><path d="M128 0h597.333q128 0 128 128v768q0 128-128 128H128Q0 1024 0 896V128Q0 0 128 0z" fill="#0065FF" p-id="1142"></path><path d="M443.733 213.333H921.6a102.4 102.4 0 0 1 102.4 102.4V921.6A102.4 102.4 0 0 1 921.6 1024H443.733a102.4 102.4 0 0 1-102.4-102.4V315.733a102.4 102.4 0 0 1 102.4-102.4z m0 50.688a51.2 51.2 0 0 0-51.2 51.2v589.867a68.267 68.267 0 0 0 68.267 68.267h443.733a68.267 68.267 0 0 0 68.267-68.267V315.136a51.2 51.2 0 0 0-51.2-51.2H443.733z" fill="#0065FF" p-id="1143"></path><path d="M245.333 256H608q32 0 32 32t-32 32H245.333q-32 0-32-32t32-32z" fill="#0065FF" p-id="1144"></path><path d="M245.333 256H608q32 0 32 32t-32 32H245.333q-32 0-32-32t32-32zM245.333 469.333H608q32 0 32 32t-32 32H245.333q-32 0-32-32t32-32zM245.333 682.667H608q32 0 32 32t-32 32H245.333q-32 0-32-32t32-32z" fill="#FFFFFF" p-id="1145"></path></svg>