<?xml version="1.0" standalone="no"?><!DOCTYPE svg PUBLIC "-//W3C//DTD SVG 1.1//EN" "http://www.w3.org/Graphics/SVG/1.1/DTD/svg11.dtd"><svg t="1742349973688" class="icon" viewBox="0 0 1024 1024" version="1.1" xmlns="http://www.w3.org/2000/svg" p-id="1106" xmlns:xlink="http://www.w3.org/1999/xlink" width="200" height="200"><path d="M263.936 884.4288a62.3616 62.3616 0 0 1-62.208-62.2592V224.7168A85.2992 85.2992 0 0 1 286.72 139.5712h438.3744a85.248 85.248 0 0 1 85.1456 85.1456v597.4528a62.208 62.208 0 0 1-90.112 55.6544l-215.04-107.52L291.84 877.7216a62.208 62.208 0 0 1-27.904 6.7072zM286.72 201.0112a23.7568 23.7568 0 0 0-23.7568 23.7056v597.4528c0 0.3072 0 0.4096 0.4096 0.6656a0.6144 0.6144 0 0 0 0.768 0l240.64-121.5488 242.7904 121.6a0.7168 0.7168 0 0 0 0.768 0c0.3584-0.256 0.3584-0.3584 0.3584-0.6656V224.7168a23.7568 23.7568 0 0 0-23.7056-23.7056z" fill="#333333" p-id="1107"></path><path d="M348.16 733.8496A30.72 30.72 0 0 1 333.5168 675.84L491.52 592.1792a30.72 30.72 0 0 1 28.7744 0L678.656 675.84a30.72 30.72 0 1 1-28.7744 54.3232l-143.7696-76.0832-143.8208 76.2368a30.72 30.72 0 0 1-14.1312 3.5328z" fill="#333333" p-id="1108"></path></svg>