<?xml version="1.0" standalone="no"?><!DOCTYPE svg PUBLIC "-//W3C//DTD SVG 1.1//EN" "http://www.w3.org/Graphics/SVG/1.1/DTD/svg11.dtd"><svg t="1742554267952" class="icon" viewBox="0 0 1024 1024" version="1.1" xmlns="http://www.w3.org/2000/svg" p-id="1301" width="128" height="128" xmlns:xlink="http://www.w3.org/1999/xlink"><path d="M948.396526 980.738698a8.219647 8.219647 0 0 1-8.219648 8.219647 7.138115 7.138115 0 0 1-3.67721 0l-423.52815-216.306511-426.340134 216.306511a8.003341 8.003341 0 0 1-10.815325-3.460904 7.138115 7.138115 0 0 1 0-3.677211V43.266277A7.787034 7.787034 0 0 1 83.17048 35.04663h857.006398A8.003341 8.003341 0 0 1 948.396526 43.266277z" fill="#D7B483" p-id="1302"></path><path d="M511.241066 591.386977l-125.025163 64.891954a19.25128 19.25128 0 0 1-25.740475-7.354422 19.467586 19.467586 0 0 1-1.946759-12.113164l23.793716-137.354635-100.582527-96.905317a19.467586 19.467586 0 0 1 0-27.254621 18.818666 18.818666 0 0 1 11.031632-5.623969l139.085087-20.116506L494.152852 223.882214a19.25128 19.25128 0 0 1 25.740475-8.65226 18.60236 18.60236 0 0 1 8.65226 8.65226l62.512582 125.025164 139.085087 20.116505a19.25128 19.25128 0 0 1 16.439295 21.630652 20.116506 20.116506 0 0 1-5.62397 11.031632l-100.798834 96.905317 23.793716 137.354635a19.034973 19.034973 0 0 1-15.574069 21.630651 18.169747 18.169747 0 0 1-12.113164-1.730452z" fill="#333443" p-id="1303"></path><path d="M940.176878 0.004975H83.17048a43.261302 43.261302 0 0 0-43.261302 43.261302v937.688727a41.098237 41.098237 0 0 0 4.758743 19.467586 43.261302 43.261302 0 0 0 57.753839 19.034973l410.982371-207.870557 407.954081 207.654251a43.261302 43.261302 0 0 0 19.467586 4.758743 43.261302 43.261302 0 0 0 43.261302-43.261302V43.266277a43.261302 43.261302 0 0 0-43.910222-43.261302zM948.396526 980.738698a8.219647 8.219647 0 0 1-8.219648 8.219647 7.138115 7.138115 0 0 1-3.67721 0l-423.52815-216.306511-426.340134 216.306511a8.003341 8.003341 0 0 1-10.815325-3.460904 7.138115 7.138115 0 0 1 0-3.677211V43.266277A7.787034 7.787034 0 0 1 83.17048 35.04663h857.006398A8.003341 8.003341 0 0 1 948.396526 43.266277z" fill="#C58E45" p-id="1304"></path></svg>