<svg viewBox="0 0 1024 1024" height="1024" width="1024" version="1.1" fill="none" xmlns:xlink="http://www.w3.org/1999/xlink" xmlns="http://www.w3.org/2000/svg"><defs><clipPath id="master_svg0_25_598"><rect rx="0" height="1024" width="1024" y="0" x="0"></rect></clipPath><linearGradient id="master_svg1_25_649" y2="0.5" x2="1.000007152557373" y1="0.5" x1="0.000006826010576332919"><stop stop-opacity="1" stop-color="#565D68" offset="0%"></stop><stop stop-opacity="1" stop-color="#838B9B" offset="100%"></stop></linearGradient><linearGradient id="master_svg2_25_650" y2="0.5000037550926208" x2="1.0000016689300537" y1="0.5000037550926208" x1="0.00000650619222142268"><stop stop-opacity="1" stop-color="#D7D1EB" offset="0%"></stop><stop stop-opacity="1" stop-color="#E9E5F6" offset="89.80000019073486%"></stop></linearGradient><linearGradient id="master_svg3_25_651" y2="0.1722725228174189" x2="0.3680606701416444" y1="0.8516998887062073" x1="0.09324260801076889"><stop stop-opacity="1" stop-color="#565D68" offset="0%"></stop><stop stop-opacity="1" stop-color="#838B9B" offset="100%"></stop></linearGradient><linearGradient id="master_svg4_25_652" y2="-1.084631323814392" x2="0.49999532103538513" y1="0.9172578454017639" x1="0.49999532103538513"><stop stop-opacity="1" stop-color="#565D68" offset="0%"></stop><stop stop-opacity="1" stop-color="#838B9B" offset="100%"></stop></linearGradient><linearGradient id="master_svg5_25_653" y2="0.9955798387527466" x2="0.5000061988830566" y1="0.19432967901229858" x1="0.5000061988830566"><stop stop-opacity="1" stop-color="#565D68" offset="0%"></stop><stop stop-opacity="1" stop-color="#838B9B" offset="100%"></stop></linearGradient><linearGradient id="master_svg6_25_654" y2="0.09680589288473129" x2="0.4999963045120239" y1="1.659728765487671" x1="0.4999963045120239"><stop stop-opacity="1" stop-color="#C5BAEB" offset="0%"></stop><stop stop-opacity="1" stop-color="#DFDAEF" offset="48.39999973773956%"></stop><stop stop-opacity="1" stop-color="#F2EDFF" offset="100%"></stop></linearGradient><linearGradient id="master_svg7_25_655" y2="0.3266294666070876" x2="0.4921179314327803" y1="0.8481630086898804" x1="0.697585940361023"><stop stop-opacity="1" stop-color="#FFFFFF" offset="0%"></stop><stop stop-opacity="0" stop-color="#FFFFFF" offset="100%"></stop></linearGradient></defs><g clip-path="url(#master_svg0_25_598)"><g><g><path style="mix-blend-mode:passthrough" fill-opacity="1" fill="url(#master_svg1_25_649)" d="M544.8339174804687,969.9959101562499L544.8339174804687,649.60791015625L384.56799318046876,663.53391015625L384.56799318046876,983.40191015625L384.57000728046876,983.40191015625C384.1759944804688,994.37191015625,390.58999748046875,1004.89791015625,404.11201748046875,1012.70391015625C433.09201748046877,1029.43591015625,483.7120174804687,1027.33791015625,517.1759174804688,1008.0179101562501C535.9999174804688,997.1499101562499,545.3839174804688,983.14591015625,544.8339174804687,969.9959101562499Z"></path></g><g><path style="mix-blend-mode:passthrough" fill-opacity="1" fill="url(#master_svg2_25_650)" d="M554.6197846679688,703.837947265625L554.6197846679688,576.595947265625L374.78393556796874,592.221947265625L374.78393556796874,718.879947265625L374.78594966796874,718.879947265625C374.34396366796875,731.189947265625,381.5419646679687,743.001947265625,396.71398466796876,751.759947265625C429.23398466796874,770.533947265625,486.03378466796875,768.1799472656251,523.5837846679688,746.501947265625C544.7057846679687,734.307947265625,555.2377846679688,718.593947265625,554.6197846679688,703.837947265625Z"></path></g><g><path style="mix-blend-mode:passthrough" fill-opacity="1" fill="url(#master_svg3_25_651)" d="M712.9360346679687,83.9601L597.2200346679688,15.7741L597.2120346679687,15.7901C559.3280346679687,-7.35194,509.39603466796876,-5.88794,454.6620346679688,25.7121C336.27203466796874,94.064,240.29803466796875,277.438,240.29803466796875,435.292C240.29803466796875,520.51,268.2800346679687,580.848,312.6500346679687,607.596L312.64203466796874,607.612L313.40403466796874,608.052C314.05003466796876,608.434,314.70003466796874,608.81,315.35403466796873,609.18L426.48803466796875,674.632L712.9360346679687,83.9601Z"></path></g><g><path style="mix-blend-mode:passthrough" fill-opacity="1" fill="url(#master_svg4_25_652)" d="M783.7019663085937,255.31169140625C783.7019663085937,97.45989140625,687.7299663085937,24.90589140625,569.3399663085937,93.25789140625C450.94996630859373,161.60989140625,354.97796630859375,344.98369140625,354.97796630859375,502.83769140625C354.97796630859375,660.69169140625,450.94996630859373,733.24369140625,569.3399663085937,664.89369140625C687.7299663085937,596.53969140625,783.7019663085937,413.16569140625,783.7019663085937,255.31169140625Z"></path></g><g><path style="mix-blend-mode:passthrough" fill-opacity="1" fill="url(#master_svg5_25_653)" d="M730.2940190429688,286.148052734375C730.2940190429688,167.624052734375,658.2320190429688,113.14605273437499,569.3380190429688,164.470052734375C480.44401904296876,215.790052734375,408.38201904296875,353.480052734375,408.38201904296875,472.004052734375C408.38201904296875,590.528052734375,480.44401904296876,645.006052734375,569.3380190429688,593.682052734375C658.2320190429688,542.358052734375,730.2940190429688,404.672052734375,730.2940190429688,286.148052734375Z"></path></g><g><path style="mix-blend-mode:passthrough" fill-opacity="1" fill="url(#master_svg6_25_654)" d="M646.5839721679688,146.175965C623.6519721679688,142.655965,597.3339721679688,148.305965,569.3399721679688,164.469975C480.4479721679687,215.789975,408.38397216796875,353.479875,408.38397216796875,472.003875C408.38397216796875,520.119875,420.26197216796874,557.677875,440.3179721679688,581.8898750000001C463.24997216796874,585.409875,489.5679721679687,579.759875,517.5619721679687,563.595875C606.4559721679688,512.273875,678.5179721679688,374.585875,678.5179721679688,256.061875C678.5179721679688,207.945975,666.6399721679687,170.387975,646.5839721679688,146.175965Z"></path></g><g><path style="mix-blend-mode:passthrough" fill-opacity="1" fill="url(#master_svg7_25_655)" d="M646.5839721679688,146.175965C623.6519721679688,142.655965,597.3339721679688,148.305965,569.3399721679688,164.469975C480.4479721679687,215.789975,408.38397216796875,353.479875,408.38397216796875,472.003875C408.38397216796875,484.617875,409.21997116796877,496.485875,410.78598216796877,507.599875L678.0539721679688,240.331975C675.7339721679688,199.72797500000001,664.3959721679687,167.677975,646.5839721679688,146.175965Z"></path></g></g></g></svg>